<svg xmlns="http://www.w3.org/2000/svg" class="mermaid-svg" width="489" height="413" viewBox="0 0 489 413" font-family="-apple-system, BlinkMacSystemFont, &#34;Segoe UI&#34;, Helvetica, Arial, sans-serif" font-size="14"><defs><marker id="arrow" viewBox="0 0 10 10" refX="9" refY="5" markerWidth="7" markerHeight="7" orient="auto-start-reverse"><path d="M 0 0 L 10 5 L 0 10 z" fill="#57606a"/></marker><marker id="cross" viewBox="0 0 10 10" refX="5" refY="5" markerWidth="8" markerHeight="8" orient="auto"><path d="M 2 2 L 8 8 M 8 2 L 2 8" stroke="#57606a" stroke-width="1.5"/></marker></defs><line class="lifeline" x1="83.0" y1="58.0" x2="83.0" y2="405.1" stroke="#57606a" stroke-dasharray="4,4"/><line class="lifeline" x1="406.2" y1="58.0" x2="406.2" y2="405.1" stroke="#57606a" stroke-dasharray="4,4"/><rect class="seq-frame" x="73.0" y="106.2" width="343.2" height="186.6" fill="none" stroke="#57606a"/><rect x="73.0" y="106.2" width="46.0" height="22.0" fill="#eaecef"/><text x="79.0" y="122.2" fill="#24292f" font-weight="bold">alt</text><text x="125.0" y="122.2" fill="#24292f">[cache hit]</text><line x1="73.0" y1="196.4" x2="416.2" y2="196.4" stroke="#57606a" stroke-dasharray="4,4"/><text x="79.0" y="212.4" fill="#24292f">[miss]</text><rect class="seq-frame" x="73.0" y="308.8" width="343.2" height="64.2" fill="none" stroke="#57606a"/><rect x="73.0" y="308.8" width="46.0" height="22.0" fill="#eaecef"/><text x="79.0" y="324.8" fill="#24292f" font-weight="bold">loop</text><text x="125.0" y="324.8" fill="#24292f">[poll]</text><rect class="activation" x="401.2" y="250.6" width="10.0" height="32.2" fill="#f6f8fa" stroke="#57606a"/><path class="seq-msg" d="M 83.0 160.4 C 131.0 160.4 131.0 180.4 89.0 180.4" fill="none" stroke="#57606a" marker-end="url(#arrow)"/><text x="137.0" y="174.4" fill="#24292f">serve cached</text><line class="seq-msg" x1="83.0" y1="250.6" x2="406.2" y2="250.6" stroke="#57606a" marker-end="url(#arrow)"/><text x="244.6" y="245.6" text-anchor="middle" fill="#24292f">query</text><line class="seq-msg" x1="406.2" y1="282.8" x2="83.0" y2="282.8" stroke="#57606a" stroke-dasharray="6,3" marker-end="url(#arrow)"/><text x="244.6" y="277.8" text-anchor="middle" fill="#24292f">rows</text><line class="seq-msg" x1="83.0" y1="362.9" x2="406.2" y2="362.9" stroke="#57606a" marker-end="url(#cross)"/><text x="244.6" y="357.9" text-anchor="middle" fill="#24292f">heartbeat</text><rect x="8.0" y="8.0" width="150.0" height="50.0" fill="#f6f8fa" stroke="#57606a" stroke-width="1.5"/><text x="83.0" y="33.0" text-anchor="middle" dominant-baseline="central" fill="#24292f">App</text><rect x="331.2" y="8.0" width="150.0" height="50.0" fill="#f6f8fa" stroke="#57606a" stroke-width="1.5"/><text x="406.2" y="33.0" text-anchor="middle" dominant-baseline="central" fill="#24292f">DB</text></svg>