<svg xmlns="http://www.w3.org/2000/svg" class="mermaid-svg" width="264" height="341" viewBox="0 0 264 341" font-family="-apple-system, BlinkMacSystemFont, &#34;Segoe UI&#34;, Helvetica, Arial, sans-serif" font-size="14"><defs><marker id="arrow" viewBox="0 0 10 10" refX="9" refY="5" markerWidth="7" markerHeight="7" orient="auto-start-reverse"><path d="M 0 0 L 10 5 L 0 10 z" fill="#57606a"/></marker><marker id="cross" viewBox="0 0 10 10" refX="5" refY="5" markerWidth="8" markerHeight="8" orient="auto"><path d="M 2 2 L 8 8 M 8 2 L 2 8" stroke="#57606a" stroke-width="1.5"/></marker></defs><line class="lifeline" x1="32.5" y1="40.2" x2="32.5" y2="333.3" stroke="#57606a" stroke-dasharray="4,4"/><line class="lifeline" x1="233.9" y1="40.2" x2="233.9" y2="333.3" stroke="#57606a" stroke-dasharray="4,4"/><rect class="seq-frame" x="22.5" y="76.4" width="221.4" height="162.6" fill="none" stroke="#57606a"/><rect x="22.5" y="76.4" width="46.0" height="22.0" fill="#eaecef"/><text x="28.5" y="92.4" fill="#24292f" font-weight="bold">alt</text><text x="74.5" y="92.4" fill="#24292f">[cache hit]</text><line x1="22.5" y1="154.6" x2="243.9" y2="154.6" stroke="#57606a" stroke-dasharray="4,4"/><text x="28.5" y="170.6" fill="#24292f">[miss]</text><rect class="seq-frame" x="22.5" y="248.9" width="221.4" height="58.2" fill="none" stroke="#57606a"/><rect x="22.5" y="248.9" width="46.0" height="22.0" fill="#eaecef"/><text x="28.5" y="264.9" fill="#24292f" font-weight="bold">loop</text><text x="74.5" y="264.9" fill="#24292f">[poll]</text><rect class="activation" x="228.9" y="202.8" width="10.0" height="26.2" fill="#f6f8fa" stroke="#57606a"/><path class="seq-msg" d="M 32.5 124.6 C 80.5 124.6 80.5 144.6 38.5 144.6" fill="none" stroke="#57606a" marker-end="url(#arrow)"/><text x="68.5" y="138.6" fill="#24292f">serve cached</text><line class="seq-msg" x1="32.5" y1="202.8" x2="233.9" y2="202.8" stroke="#57606a" marker-end="url(#arrow)"/><text x="133.2" y="197.8" text-anchor="middle" fill="#24292f">query</text><line class="seq-msg" x1="233.9" y1="228.9" x2="32.5" y2="228.9" stroke="#57606a" stroke-dasharray="6,3" marker-end="url(#arrow)"/><text x="133.2" y="223.9" text-anchor="middle" fill="#24292f">rows</text><line class="seq-msg" x1="32.5" y1="297.1" x2="233.9" y2="297.1" stroke="#57606a" marker-end="url(#cross)"/><text x="133.2" y="292.1" text-anchor="middle" fill="#24292f">heartbeat</text><rect x="8.0" y="8.0" width="48.9" height="32.2" fill="#f6f8fa" stroke="#57606a" stroke-width="1.5"/><text x="32.5" y="24.1" text-anchor="middle" dominant-baseline="central" fill="#24292f">App</text><rect x="212.1" y="8.0" width="43.5" height="32.2" fill="#f6f8fa" stroke="#57606a" stroke-width="1.5"/><text x="233.9" y="24.1" text-anchor="middle" dominant-baseline="central" fill="#24292f">DB</text></svg>