<svg xmlns="http://www.w3.org/2000/svg" class="mermaid-svg" width="446" height="323" viewBox="0 0 446 323" font-family="-apple-system, BlinkMacSystemFont, &#34;Segoe UI&#34;, Helvetica, Arial, sans-serif" font-size="14"><defs><marker id="arrow" viewBox="0 0 10 10" refX="9" refY="5" markerWidth="7" markerHeight="7" orient="auto-start-reverse"><path d="M 0 0 L 10 5 L 0 10 z" fill="#57606a"/></marker><marker id="cross" viewBox="0 0 10 10" refX="5" refY="5" markerWidth="8" markerHeight="8" orient="auto"><path d="M 2 2 L 8 8 M 8 2 L 2 8" stroke="#57606a" stroke-width="1.5"/></marker></defs><line class="lifeline" x1="83.0" y1="58.0" x2="83.0" y2="315.3" stroke="#57606a" stroke-dasharray="4,4"/><line class="lifeline" x1="363.4" y1="58.0" x2="363.4" y2="315.3" stroke="#57606a" stroke-dasharray="4,4"/><rect class="activation" x="358.4" y="122.4" width="10.0" height="32.2" fill="#f6f8fa" stroke="#57606a"/><line class="seq-msg" x1="83.0" y1="122.4" x2="363.4" y2="122.4" stroke="#57606a" marker-end="url(#arrow)"/><text x="223.2" y="117.4" text-anchor="middle" fill="#24292f">1. GET /doc</text><line class="seq-msg" x1="363.4" y1="154.6" x2="83.0" y2="154.6" stroke="#57606a" stroke-dasharray="6,3" marker-end="url(#arrow)"/><text x="223.2" y="149.6" text-anchor="middle" fill="#24292f">2. 200 OK</text><path class="seq-msg" d="M 83.0 186.8 C 131.0 186.8 131.0 206.8 89.0 206.8" fill="none" stroke="#57606a" marker-end="url(#arrow)"/><text x="137.0" y="200.8" fill="#24292f">3. render</text><rect x="182.6" y="238.9" width="81.3" height="28.2" fill="#eaecef" stroke="#57606a"/><text x="223.2" y="253.0" text-anchor="middle" dominant-baseline="central" fill="#24292f">happy path</text><rect x="8.0" y="8.0" width="150.0" height="50.0" fill="#f6f8fa" stroke="#57606a" stroke-width="1.5"/><text x="83.0" y="33.0" text-anchor="middle" dominant-baseline="central" fill="#24292f">Client</text><rect x="288.4" y="8.0" width="150.0" height="50.0" fill="#f6f8fa" stroke="#57606a" stroke-width="1.5"/><text x="363.4" y="33.0" text-anchor="middle" dominant-baseline="central" fill="#24292f">Server</text></svg>