<svg xmlns="http://www.w3.org/2000/svg" class="mermaid-svg" width="241" height="501" viewBox="0 0 241 501" font-family="-apple-system, BlinkMacSystemFont, &#34;Segoe UI&#34;, Helvetica, Arial, sans-serif" font-size="14"><defs><marker id="arrow" viewBox="0 0 10 10" refX="9" refY="5" markerWidth="7" markerHeight="7" orient="auto-start-reverse"><path d="M 0 0 L 10 5 L 0 10 z" fill="#57606a"/></marker></defs><rect x="61.0" y="300.8" width="151.6" height="192.4" rx="4" fill="#eaecef" opacity="0.4"/><text x="69.0" y="318.8" fill="#24292f" font-weight="bold">Recovery</text><path class="edge" d="M 76.9 26.0 L 76.9 38.5 Q 76.9 51.0 76.9 63.5 L 76.9 76.0" fill="none" stroke="#57606a" stroke-width="1.5" marker-end="url(#arrow)"/><path class="edge" d="M 67.2 122.2 L 60.3 138.7 Q 53.4 155.3 60.3 171.8 L 67.2 188.4" fill="none" stroke="#57606a" stroke-width="1.5" marker-end="url(#arrow)"/><rect x="37.8" y="146.2" width="31.3" height="18.2" fill="#f6f8fa" opacity="0.85"/><text x="53.4" y="155.3" text-anchor="middle" dominant-baseline="central" fill="#24292f">start</text><path class="edge" d="M 86.5 188.4 L 93.4 171.8 Q 100.4 155.3 93.4 138.7 L 86.5 122.2" fill="none" stroke="#57606a" stroke-width="1.5" marker-end="url(#arrow)"/><rect x="85.1" y="146.2" width="30.5" height="18.2" fill="#f6f8fa" opacity="0.85"/><text x="100.4" y="155.3" text-anchor="middle" dominant-baseline="central" fill="#24292f">stop</text><path class="edge" d="M 52.3 234.6 L 34.6 251.1 Q 17.0 267.7 17.0 284.2 Q 17.0 300.8 17.0 320.3 L 17.0 339.8" fill="none" stroke="#57606a" stroke-width="1.5" marker-end="url(#arrow)"/><path class="edge" d="M 136.8 371.9 L 136.8 384.4 Q 136.8 396.9 136.8 409.4 L 136.8 421.9" fill="none" stroke="#57606a" stroke-width="1.5" marker-end="url(#arrow)"/><path class="edge" d="M 101.5 234.6 L 119.1 251.1 Q 136.8 267.7 136.8 284.2 Q 136.8 300.8 136.8 313.2 L 136.8 325.8" fill="none" stroke="#57606a" stroke-width="1.5" marker-end="url(#arrow)"/><rect x="121.2" y="258.6" width="31.2" height="18.2" fill="#f6f8fa" opacity="0.85"/><text x="136.8" y="267.7" text-anchor="middle" dominant-baseline="central" fill="#24292f">fault</text><circle class="state-start" cx="76.9" cy="17.0" r="7" fill="#57606a"/><rect x="44.4" y="76.0" width="64.9" height="46.2" rx="6" fill="#f6f8fa" stroke="#57606a" stroke-width="1.5"/><text x="76.9" y="99.1" text-anchor="middle" dominant-baseline="central" fill="#24292f">Idle</text><rect x="30.7" y="188.4" width="92.5" height="46.2" rx="6" fill="#f6f8fa" stroke="#57606a" stroke-width="1.5"/><text x="76.9" y="211.5" text-anchor="middle" dominant-baseline="central" fill="#24292f">Running</text><circle class="state-end" cx="17.0" cy="348.8" r="8" fill="none" stroke="#57606a" stroke-width="1.5"/><circle cx="17.0" cy="348.8" r="4.5" fill="#57606a"/><rect x="96.5" y="325.8" width="80.6" height="46.2" rx="6" fill="#f6f8fa" stroke="#57606a" stroke-width="1.5"/><text x="136.8" y="348.8" text-anchor="middle" dominant-baseline="central" fill="#24292f">Detect</text><rect x="96.0" y="421.9" width="81.6" height="46.2" rx="6" fill="#f6f8fa" stroke="#57606a" stroke-width="1.5"/><text x="136.8" y="445.0" text-anchor="middle" dominant-baseline="central" fill="#24292f">Repair</text></svg>